<?xml version="1.0" encoding="UTF-8" standalone="no"?>
<!-- Generator: Adobe Illustrator 25.2.3, SVG Export Plug-In . SVG Version: 6.00 Build 0)  -->

<svg
   version="1.1"
   x="0px"
   y="0px"
   viewBox="0 0 983.71163 404.79292"
   xml:space="preserve"
   id="svg2082"
   sodipodi:docname="reviungdash-upper-middle-plate.svg"
   width="260.27371mm"
   height="107.10146mm"
   inkscape:version="1.2.2 (b0a8486541, 2022-12-01)"
   xmlns:inkscape="http://www.inkscape.org/namespaces/inkscape"
   xmlns:sodipodi="http://sodipodi.sourceforge.net/DTD/sodipodi-0.dtd"
   xmlns="http://www.w3.org/2000/svg"
   xmlns:svg="http://www.w3.org/2000/svg"><defs
   id="defs2086">
	
<marker
   id="DistanceX"
   orient="auto"
   refX="0"
   refY="0"
   style="overflow:visible"><path
     d="M 3,-3 -3,3 M 0,-5 V 5"
     style="stroke:#000000;stroke-width:0.5"
     id="path3179" /></marker><pattern
   id="Hatch"
   patternUnits="userSpaceOnUse"
   width="8"
   height="8"
   x="0"
   y="0"><path
     d="M8 4 l-4,4"
     stroke="#000000"
     stroke-width="0.25"
     linecap="square"
     id="path3182" /><path
     d="M6 2 l-4,4"
     stroke="#000000"
     stroke-width="0.25"
     linecap="square"
     id="path3184" /><path
     d="M4 0 l-4,4"
     stroke="#000000"
     stroke-width="0.25"
     linecap="square"
     id="path3186" /></pattern><marker
   id="DistanceX-3"
   orient="auto"
   refX="0"
   refY="0"
   style="overflow:visible"><path
     d="M 3,-3 -3,3 M 0,-5 V 5"
     style="stroke:#000000;stroke-width:0.5"
     id="path4128" /></marker><pattern
   id="Hatch-6"
   patternUnits="userSpaceOnUse"
   width="8"
   height="8"
   x="0"
   y="0"><path
     d="M8 4 l-4,4"
     stroke="#000000"
     stroke-width="0.25"
     linecap="square"
     id="path4131" /><path
     d="M6 2 l-4,4"
     stroke="#000000"
     stroke-width="0.25"
     linecap="square"
     id="path4133" /><path
     d="M4 0 l-4,4"
     stroke="#000000"
     stroke-width="0.25"
     linecap="square"
     id="path4135" /></pattern><marker
   id="DistanceX-7"
   orient="auto"
   refX="0"
   refY="0"
   style="overflow:visible"><path
     d="M 3,-3 -3,3 M 0,-5 V 5"
     style="stroke:#000000;stroke-width:0.5"
     id="path5061" /></marker><pattern
   id="Hatch-5"
   patternUnits="userSpaceOnUse"
   width="8"
   height="8"
   x="0"
   y="0"><path
     d="M8 4 l-4,4"
     stroke="#000000"
     stroke-width="0.25"
     linecap="square"
     id="path5064" /><path
     d="M6 2 l-4,4"
     stroke="#000000"
     stroke-width="0.25"
     linecap="square"
     id="path5066" /><path
     d="M4 0 l-4,4"
     stroke="#000000"
     stroke-width="0.25"
     linecap="square"
     id="path5068" /></pattern><marker
   id="DistanceX-35"
   orient="auto"
   refX="0"
   refY="0"
   style="overflow:visible"><path
     d="M 3,-3 -3,3 M 0,-5 V 5"
     style="stroke:#000000;stroke-width:0.5"
     id="path6528" /></marker><pattern
   id="Hatch-62"
   patternUnits="userSpaceOnUse"
   width="8"
   height="8"
   x="0"
   y="0"><path
     d="M8 4 l-4,4"
     stroke="#000000"
     stroke-width="0.25"
     linecap="square"
     id="path6531" /><path
     d="M6 2 l-4,4"
     stroke="#000000"
     stroke-width="0.25"
     linecap="square"
     id="path6533" /><path
     d="M4 0 l-4,4"
     stroke="#000000"
     stroke-width="0.25"
     linecap="square"
     id="path6535" /></pattern><marker
   id="DistanceX-9"
   orient="auto"
   refX="0"
   refY="0"
   style="overflow:visible"><path
     d="M 3,-3 -3,3 M 0,-5 V 5"
     style="stroke:#000000;stroke-width:0.5"
     id="path7509" /></marker><pattern
   id="Hatch-1"
   patternUnits="userSpaceOnUse"
   width="8"
   height="8"
   x="0"
   y="0"><path
     d="M8 4 l-4,4"
     stroke="#000000"
     stroke-width="0.25"
     linecap="square"
     id="path7512" /><path
     d="M6 2 l-4,4"
     stroke="#000000"
     stroke-width="0.25"
     linecap="square"
     id="path7514" /><path
     d="M4 0 l-4,4"
     stroke="#000000"
     stroke-width="0.25"
     linecap="square"
     id="path7516" /></pattern></defs><sodipodi:namedview
   id="namedview2084"
   pagecolor="#ffffff"
   bordercolor="#999999"
   borderopacity="1"
   inkscape:showpageshadow="0"
   inkscape:pageopacity="0"
   inkscape:pagecheckerboard="0"
   inkscape:deskcolor="#d1d1d1"
   showgrid="false"
   inkscape:zoom="45.254834"
   inkscape:cx="17.346213"
   inkscape:cy="337.04687"
   inkscape:window-width="1920"
   inkscape:window-height="1013"
   inkscape:window-x="1920"
   inkscape:window-y="0"
   inkscape:window-maximized="1"
   inkscape:current-layer="svg2082"
   inkscape:document-units="mm" />
<style
   type="text/css"
   id="style2033">
	.st0{fill:none;stroke:#231815;stroke-width:0.25;stroke-miterlimit:10;}
	.st1{fill:#E7211A;}
	.st2{fill:#231815;}
	.st3{font-family:'ArialMT';}
	.st4{font-size:14px;}
</style>

<g
   id="graving"
   transform="matrix(1.3321921,0,0,1.3321921,12.955936,6.7314822)">
	<g
   id="g2070">
		<path
   class="st1"
   d="M 0.6,11.65 V 0.2 h 4.87 c 1.22,0 2.11,0.1 2.67,0.31 0.55,0.21 1,0.57 1.33,1.1 0.33,0.53 0.5,1.13 0.5,1.8 0,0.86 -0.25,1.57 -0.76,2.13 C 8.7,6.1 7.95,6.45 6.94,6.59 7.44,6.88 7.85,7.2 8.18,7.55 8.51,7.9 8.95,8.52 9.5,9.41 l 1.4,2.23 H 8.13 L 6.46,9.16 C 5.87,8.27 5.46,7.71 5.24,7.48 5.02,7.24 4.79,7.08 4.54,7 4.3,6.91 3.91,6.87 3.38,6.87 H 2.91 v 4.78 z M 2.91,5.04 H 4.62 C 5.73,5.04 6.42,4.99 6.7,4.9 6.98,4.8 7.19,4.64 7.35,4.41 7.51,4.19 7.58,3.9 7.58,3.55 7.58,3.16 7.48,2.85 7.27,2.62 7.07,2.38 6.78,2.23 6.4,2.17 6.22,2.15 5.65,2.13 4.72,2.13 h -1.8 v 2.91 z"
   id="path2038" />
		<path
   class="st1"
   d="m 16.93,9.01 2.19,0.37 c -0.28,0.8 -0.73,1.41 -1.33,1.83 -0.61,0.42 -1.37,0.63 -2.28,0.63 -1.44,0 -2.51,-0.47 -3.2,-1.41 -0.55,-0.75 -0.82,-1.71 -0.82,-2.86 0,-1.38 0.36,-2.45 1.08,-3.23 0.72,-0.78 1.63,-1.17 2.73,-1.17 1.23,0 2.21,0.41 2.92,1.22 0.71,0.82 1.05,2.06 1.02,3.75 h -5.5 c 0.02,0.65 0.19,1.16 0.53,1.52 0.34,0.36 0.76,0.54 1.27,0.54 0.34,0 0.63,-0.09 0.87,-0.28 0.24,-0.19 0.4,-0.5 0.52,-0.91 z M 17.06,6.79 C 17.04,6.15 16.88,5.67 16.57,5.34 16.26,5.01 15.88,4.84 15.43,4.84 c -0.48,0 -0.88,0.17 -1.19,0.52 -0.31,0.35 -0.47,0.82 -0.46,1.42 h 3.28 z"
   id="path2040" />
		<path
   class="st1"
   d="M 28.64,11.65 H 26.6 v -1.22 c -0.34,0.47 -0.74,0.83 -1.2,1.06 -0.46,0.23 -0.93,0.35 -1.39,0.35 -0.95,0 -1.77,-0.38 -2.45,-1.15 -0.68,-0.77 -1.02,-1.84 -1.02,-3.21 0,-1.41 0.33,-2.48 0.99,-3.21 0.66,-0.73 1.5,-1.1 2.51,-1.1 0.93,0 1.73,0.39 2.41,1.16 V 0.2 h 2.2 V 11.65 Z M 22.78,7.32 c 0,0.89 0.12,1.53 0.37,1.92 0.35,0.57 0.85,0.86 1.48,0.86 0.5,0 0.93,-0.21 1.29,-0.64 0.35,-0.43 0.53,-1.07 0.53,-1.93 0,-0.95 -0.17,-1.64 -0.52,-2.06 -0.34,-0.42 -0.78,-0.63 -1.32,-0.63 -0.52,0 -0.96,0.21 -1.31,0.62 -0.35,0.41 -0.52,1.04 -0.52,1.86 z"
   id="path2042" />
		<path
   class="st1"
   d="M 36.89,5.88 34.9,5.52 c 0.22,-0.8 0.61,-1.4 1.16,-1.78 0.55,-0.39 1.36,-0.58 2.44,-0.58 0.98,0 1.71,0.12 2.19,0.35 0.48,0.23 0.82,0.53 1.01,0.88 0.2,0.36 0.29,1.01 0.29,1.96 l -0.02,2.56 c 0,0.73 0.04,1.27 0.11,1.61 0.07,0.35 0.2,0.72 0.39,1.11 H 40.3 c -0.06,-0.15 -0.13,-0.36 -0.21,-0.65 -0.04,-0.13 -0.06,-0.22 -0.08,-0.26 -0.38,0.36 -0.78,0.64 -1.2,0.82 -0.43,0.18 -0.88,0.27 -1.37,0.27 -0.85,0 -1.53,-0.23 -2.02,-0.7 -0.49,-0.46 -0.74,-1.05 -0.74,-1.76 0,-0.47 0.11,-0.89 0.34,-1.25 0.22,-0.37 0.54,-0.65 0.94,-0.84 0.4,-0.2 0.99,-0.37 1.75,-0.51 1.03,-0.19 1.74,-0.37 2.13,-0.54 V 6.02 c 0,-0.42 -0.1,-0.72 -0.31,-0.9 -0.21,-0.18 -0.6,-0.27 -1.18,-0.27 -0.39,0 -0.7,0.08 -0.91,0.23 -0.24,0.15 -0.42,0.42 -0.55,0.8 z m 2.94,1.78 C 39.54,7.76 39.1,7.87 38.49,8 37.88,8.13 37.48,8.26 37.29,8.38 37,8.58 36.86,8.84 36.86,9.15 c 0,0.31 0.11,0.57 0.34,0.8 0.23,0.22 0.52,0.34 0.88,0.34 0.4,0 0.77,-0.13 1.13,-0.39 0.27,-0.2 0.44,-0.44 0.52,-0.73 0.06,-0.19 0.09,-0.54 0.09,-1.07 V 7.66 Z"
   id="path2044" />
		<path
   class="st1"
   d="m 46.25,11.65 h -2.2 v -8.3 h 2.04 v 1.18 c 0.35,-0.56 0.66,-0.92 0.94,-1.1 0.28,-0.18 0.59,-0.27 0.95,-0.27 0.5,0 0.98,0.14 1.45,0.41 L 48.75,5.48 C 48.38,5.24 48.04,5.12 47.72,5.12 c -0.31,0 -0.57,0.08 -0.78,0.25 -0.21,0.17 -0.38,0.48 -0.5,0.92 -0.12,0.44 -0.18,1.37 -0.18,2.78 v 2.58 z"
   id="path2046" />
		<path
   class="st1"
   d="m 55.18,9.01 2.19,0.37 c -0.28,0.8 -0.73,1.41 -1.33,1.83 -0.61,0.42 -1.37,0.63 -2.28,0.63 -1.44,0 -2.51,-0.47 -3.2,-1.41 -0.55,-0.75 -0.82,-1.71 -0.82,-2.86 0,-1.38 0.36,-2.45 1.08,-3.23 0.72,-0.78 1.63,-1.17 2.73,-1.17 1.23,0 2.21,0.41 2.92,1.22 0.71,0.82 1.05,2.06 1.02,3.75 h -5.5 c 0.02,0.65 0.19,1.16 0.53,1.52 0.34,0.36 0.76,0.54 1.27,0.54 0.34,0 0.63,-0.09 0.87,-0.28 0.24,-0.19 0.4,-0.5 0.52,-0.91 z M 55.3,6.79 C 55.28,6.15 55.12,5.67 54.81,5.34 54.5,5.01 54.12,4.84 53.67,4.84 c -0.48,0 -0.88,0.17 -1.19,0.52 -0.31,0.35 -0.47,0.82 -0.46,1.42 h 3.28 z"
   id="path2048" />
		<path
   class="st1"
   d="M 60.91,5.88 58.92,5.52 c 0.22,-0.8 0.61,-1.4 1.16,-1.78 0.55,-0.39 1.36,-0.58 2.44,-0.58 0.98,0 1.71,0.12 2.19,0.35 0.48,0.23 0.82,0.53 1.01,0.88 0.2,0.36 0.29,1.01 0.29,1.96 l -0.02,2.56 c 0,0.73 0.04,1.27 0.11,1.61 0.07,0.35 0.2,0.72 0.39,1.11 h -2.17 c -0.06,-0.15 -0.13,-0.36 -0.21,-0.65 -0.04,-0.13 -0.06,-0.22 -0.08,-0.26 -0.38,0.36 -0.78,0.64 -1.2,0.82 -0.43,0.18 -0.88,0.27 -1.37,0.27 -0.85,0 -1.53,-0.23 -2.02,-0.7 -0.49,-0.46 -0.74,-1.05 -0.74,-1.76 0,-0.47 0.11,-0.89 0.34,-1.25 0.22,-0.37 0.54,-0.65 0.94,-0.84 0.4,-0.2 0.99,-0.37 1.75,-0.51 1.03,-0.19 1.74,-0.37 2.13,-0.54 V 6.02 c 0,-0.42 -0.1,-0.72 -0.31,-0.9 -0.21,-0.18 -0.6,-0.27 -1.18,-0.27 -0.39,0 -0.7,0.08 -0.91,0.23 -0.24,0.15 -0.41,0.42 -0.55,0.8 z m 2.94,1.78 C 63.57,7.76 63.12,7.87 62.51,8 61.9,8.13 61.5,8.26 61.31,8.38 c -0.29,0.2 -0.43,0.46 -0.43,0.77 0,0.31 0.11,0.57 0.34,0.8 0.23,0.22 0.52,0.34 0.88,0.34 0.4,0 0.77,-0.13 1.13,-0.39 C 63.5,9.7 63.67,9.46 63.75,9.17 63.81,8.98 63.84,8.63 63.84,8.1 V 7.66 Z"
   id="path2050" />
		<path
   class="st1"
   d="M 72.61,2.23 V 0.2 h 2.2 v 2.03 z m 0,9.42 v -8.3 h 2.2 v 8.3 z"
   id="path2052" />
		<path
   class="st1"
   d="m 76.29,9.28 2.2,-0.34 c 0.09,0.43 0.28,0.75 0.57,0.97 0.29,0.22 0.69,0.33 1.2,0.33 0.57,0 0.99,-0.1 1.28,-0.31 0.19,-0.15 0.29,-0.34 0.29,-0.59 0,-0.17 -0.05,-0.3 -0.16,-0.41 C 81.56,8.83 81.32,8.73 80.94,8.64 79.17,8.25 78.05,7.89 77.57,7.57 76.91,7.12 76.59,6.5 76.59,5.7 c 0,-0.72 0.28,-1.32 0.85,-1.81 0.57,-0.49 1.45,-0.73 2.64,-0.73 1.14,0 1.98,0.19 2.53,0.55 0.55,0.37 0.93,0.92 1.14,1.64 L 81.68,5.73 C 81.6,5.42 81.43,5.17 81.18,5 80.93,4.83 80.58,4.74 80.12,4.74 c -0.58,0 -0.99,0.08 -1.24,0.24 -0.17,0.11 -0.25,0.26 -0.25,0.45 0,0.16 0.07,0.29 0.22,0.4 0.2,0.15 0.88,0.35 2.05,0.62 1.17,0.27 1.99,0.59 2.45,0.98 0.46,0.39 0.69,0.94 0.69,1.63 0,0.76 -0.32,1.41 -0.95,1.96 -0.64,0.55 -1.58,0.82 -2.82,0.82 -1.13,0 -2.02,-0.23 -2.68,-0.69 -0.67,-0.46 -1.1,-1.08 -1.3,-1.87 z"
   id="path2054" />
		<path
   class="st1"
   d="M 95.75,7.44 V 5.51 h 4.98 v 4.56 c -0.48,0.47 -1.19,0.88 -2.11,1.24 -0.92,0.36 -1.85,0.54 -2.79,0.54 -1.2,0 -2.24,-0.25 -3.13,-0.75 C 91.81,10.6 91.14,9.88 90.69,8.94 90.24,8 90.02,6.98 90.02,5.88 90.02,4.69 90.27,3.63 90.77,2.7 91.27,1.77 92,1.06 92.97,0.57 93.7,0.19 94.61,0 95.71,0 c 1.42,0 2.53,0.3 3.33,0.89 0.8,0.6 1.31,1.42 1.54,2.47 l -2.3,0.43 C 98.12,3.23 97.82,2.78 97.37,2.46 96.92,2.13 96.37,1.97 95.7,1.97 c -1.01,0 -1.81,0.32 -2.41,0.96 -0.6,0.64 -0.89,1.59 -0.89,2.85 0,1.36 0.3,2.38 0.91,3.06 0.6,0.68 1.4,1.02 2.38,1.02 0.48,0 0.97,-0.09 1.46,-0.29 0.49,-0.19 0.9,-0.42 1.25,-0.69 V 7.44 Z"
   id="path2056" />
		<path
   class="st1"
   d="m 104.95,11.65 h -2.2 v -8.3 h 2.04 v 1.18 c 0.35,-0.56 0.66,-0.92 0.94,-1.1 0.28,-0.18 0.59,-0.27 0.95,-0.27 0.5,0 0.98,0.14 1.45,0.41 l -0.68,1.91 c -0.37,-0.24 -0.71,-0.36 -1.03,-0.36 -0.31,0 -0.57,0.08 -0.78,0.25 -0.21,0.17 -0.38,0.48 -0.5,0.92 -0.12,0.44 -0.18,1.37 -0.18,2.78 v 2.58 z"
   id="path2058" />
		<path
   class="st1"
   d="m 110.72,5.88 -1.99,-0.36 c 0.22,-0.8 0.61,-1.4 1.16,-1.78 0.55,-0.39 1.36,-0.58 2.44,-0.58 0.98,0 1.71,0.12 2.19,0.35 0.48,0.23 0.82,0.53 1.01,0.88 0.2,0.36 0.29,1.01 0.29,1.96 l -0.02,2.56 c 0,0.73 0.04,1.27 0.11,1.61 0.07,0.35 0.2,0.72 0.39,1.11 h -2.17 c -0.06,-0.15 -0.13,-0.36 -0.21,-0.65 -0.04,-0.13 -0.06,-0.22 -0.08,-0.26 -0.38,0.36 -0.78,0.64 -1.2,0.82 -0.43,0.18 -0.88,0.27 -1.37,0.27 -0.85,0 -1.53,-0.23 -2.02,-0.7 -0.49,-0.46 -0.74,-1.05 -0.74,-1.76 0,-0.47 0.11,-0.89 0.34,-1.25 0.22,-0.37 0.54,-0.65 0.94,-0.84 0.4,-0.2 0.99,-0.37 1.75,-0.51 1.03,-0.19 1.74,-0.37 2.13,-0.54 V 6.02 c 0,-0.42 -0.1,-0.72 -0.31,-0.9 -0.21,-0.18 -0.6,-0.27 -1.18,-0.27 -0.39,0 -0.7,0.08 -0.91,0.23 -0.24,0.15 -0.42,0.42 -0.55,0.8 z m 2.93,1.78 c -0.28,0.09 -0.73,0.21 -1.34,0.34 -0.61,0.13 -1.01,0.26 -1.2,0.38 -0.29,0.2 -0.43,0.46 -0.43,0.77 0,0.31 0.11,0.57 0.34,0.8 0.23,0.22 0.52,0.34 0.88,0.34 0.4,0 0.77,-0.13 1.13,-0.39 0.27,-0.2 0.44,-0.44 0.52,-0.73 0.06,-0.19 0.09,-0.54 0.09,-1.07 V 7.66 Z"
   id="path2060" />
		<path
   class="st1"
   d="m 120.26,11.65 -3.34,-8.3 h 2.3 l 1.56,4.23 0.45,1.42 c 0.12,-0.36 0.2,-0.6 0.23,-0.71 0.07,-0.23 0.15,-0.47 0.23,-0.7 l 1.58,-4.23 h 2.26 l -3.3,8.3 h -1.97 z"
   id="path2062" />
		<path
   class="st1"
   d="M 126.87,2.23 V 0.2 h 2.2 v 2.03 z m 0,9.42 v -8.3 h 2.2 v 8.3 z"
   id="path2064" />
		<path
   class="st1"
   d="m 138.86,11.65 h -2.2 V 7.41 c 0,-0.9 -0.05,-1.48 -0.14,-1.74 -0.09,-0.26 -0.25,-0.47 -0.46,-0.61 -0.21,-0.15 -0.46,-0.22 -0.76,-0.22 -0.38,0 -0.72,0.1 -1.02,0.31 -0.3,0.21 -0.51,0.48 -0.62,0.83 -0.11,0.34 -0.17,0.98 -0.17,1.91 v 3.76 h -2.2 v -8.3 h 2.04 v 1.22 c 0.72,-0.94 1.64,-1.41 2.73,-1.41 0.48,0 0.93,0.09 1.33,0.26 0.4,0.17 0.7,0.4 0.91,0.67 0.21,0.27 0.35,0.58 0.43,0.92 0.08,0.34 0.12,0.84 0.12,1.48 v 5.16 z"
   id="path2066" />
		<path
   class="st1"
   d="m 140.89,12.2 2.51,0.3 c 0.04,0.29 0.14,0.49 0.29,0.6 0.21,0.16 0.54,0.23 0.98,0.23 0.57,0 1,-0.09 1.29,-0.26 0.19,-0.11 0.34,-0.3 0.44,-0.55 0.07,-0.18 0.1,-0.52 0.1,-1.01 V 10.3 c -0.66,0.9 -1.48,1.34 -2.48,1.34 -1.11,0 -2,-0.47 -2.65,-1.41 -0.51,-0.74 -0.77,-1.67 -0.77,-2.78 0,-1.39 0.33,-2.45 1,-3.19 0.67,-0.73 1.5,-1.1 2.5,-1.1 1.03,0 1.87,0.45 2.54,1.35 V 3.35 h 2.05 v 7.45 c 0,0.98 -0.08,1.71 -0.24,2.2 -0.16,0.48 -0.39,0.86 -0.68,1.14 -0.29,0.28 -0.68,0.49 -1.17,0.65 -0.49,0.16 -1.1,0.23 -1.85,0.23 -1.41,0 -2.4,-0.24 -2.99,-0.72 -0.59,-0.48 -0.88,-1.09 -0.88,-1.83 0,-0.08 0,-0.17 0.01,-0.27 z m 1.96,-4.87 c 0,0.88 0.17,1.52 0.51,1.93 0.34,0.41 0.76,0.61 1.26,0.61 0.54,0 0.99,-0.21 1.36,-0.63 0.37,-0.42 0.55,-1.04 0.55,-1.86 0,-0.86 -0.18,-1.5 -0.53,-1.91 -0.35,-0.42 -0.8,-0.62 -1.34,-0.62 -0.53,0 -0.96,0.2 -1.3,0.61 -0.34,0.41 -0.51,1.03 -0.51,1.87 z"
   id="path2068" />
	</g>
	<path
   class="st1"
   d="m 330.72,210.62 10.3,5.98 c 0.65,0.38 1.39,0.58 2.14,0.58 h 8.09 c 1.28,-3.28 4.45,-5.6 8.18,-5.6 3.73,0 6.9,2.32 8.18,5.6 h 8.09 c 0.75,0 1.49,-0.2 2.14,-0.58 l 10.28,-5.98 c 1.55,-0.9 2.37,-2.67 2.05,-4.44 L 369.64,91.17 c -0.36,-2.03 -2.13,-3.52 -4.2,-3.52 h -12.05 c -2.07,0 -3.84,1.48 -4.2,3.52 l -20.53,115.01 c -0.31,1.77 0.51,3.54 2.06,4.44 z m 20.92,-46.92 h 15.68 c 2.5,0 4.52,2.02 4.52,4.52 v 5.14 c -0.54,0.75 -0.88,1.66 -0.88,2.65 0,1 0.33,1.91 0.88,2.65 v 5.24 c 0,2.5 -2.03,4.52 -4.52,4.52 h -15.68 c -2.5,0 -4.52,-2.03 -4.52,-4.52 v -5.27 c 0.53,-0.74 0.85,-1.64 0.85,-2.62 0,-0.98 -0.32,-1.88 -0.85,-2.62 v -5.17 c -0.01,-2.5 2.02,-4.52 4.52,-4.52 z"
   id="path2072" />
</g>
<g
   id="note"
   transform="translate(5.9924227,97.545771)">
	<text
   transform="translate(5.2475,275.5811)"
   id="text2079"><tspan
     x="0"
     y="0"
     class="st2 st3 st4"
     id="tspan2075">W : 260.272 mm</tspan><tspan
     x="0"
     y="18"
     class="st2 st3 st4"
     id="tspan2077">H : 101.205 mm</tspan></text>
</g>
<path
   id="path8972"
   style="display:inline;fill:#000000;fill-opacity:0;stroke:#000000;stroke-width:100000;stroke-linecap:round;stroke-linejoin:round;stroke-opacity:1"
   transform="matrix(3.7761737e-6,0,0,3.7761737e-6,-54.462443,-188.99539)"
   d="m 94909771,150436540 c -308259,-82530 -549648,-308620 -664900,-606200 m -3192150,-5563740 -13926496,3840 m 0,0 c -320191,-87320 -570548,-312020 -685800,-609600 m -20472400,-1930400 -39018874,-2264920 m -2433926,-3475480 13327550,-74945626 m 233657675,1561 c -254000,-1432322 -1492540,-2479173 -2946030,-2479173 h -79264600 l -9341860,-1636940 c -271640,-45862 -529180,134060 -578570,405707 l -645600,3651365 -2279020,829054 -1859200,-1559327 596220,-3376189 c 74080,-419819 -208150,-821999 -627970,-896084 v 0 c -419810,-74086 -818470,204617 -896080,624436 l -2952840,16535215 c -144650,814942 -924310,1358237 -1739250,1213594 l -15367480,-2716475 c -271650,-49390 -532720,134060 -578580,405708 l -596210,3383245 -2279020,829054 -1859200,-1559327 596220,-3386773 c 49390,-271648 -134060,-532712 -405710,-578574 l -6127940,-1083062 c -271650,-49390 -532710,134060 -578580,405707 l -596210,3372662 -2279020,829054 -1859190,-1559327 596210,-3376190 c 49390,-271647 -134060,-532711 -405710,-578573 l -871390,-155228 c -254000,-45862 -479790,-186977 -631490,-391595 l -571520,-779663 c -151700,-208146 -377480,-349261 -631490,-391596 l -12315860,-2173180 c -331620,-59974 -610320,-278703 -744380,-589157 l -822000,-1905060 c -134060,-306926 -412760,-529183 -740860,-589158 L 91907537,58566802 H 30797446 c -1457018,0 -2704191,1045290 -2954671,2477612 m 67066996,89392126 25185599,6731210 h 49189350 l 25139740,-6731210 m 68130590,-53447501 -13688210,2413078 -2585940,-14672490 13688200,-2413077 z m -25263220,-33574917 1940340,11007013 c 123480,702050 927840,1058366 1524050,666771 472740,-313982 1037200,-493905 1647530,-493905 239890,0 472730,28223 694990,81142 694990,165810 1326490,-444514 1203010,-1146564 l -1333540,-7560266 13688210,-2413076 2585940,14672491 -13688210,2413075 -7040,-45861 c -116430,-659716 -874920,-938418 -1418210,-550351 -486850,345731 -1083070,546821 -1728670,546821 -1460550,0 -2677670,-1047783 -2945790,-2430715 l -13268390,2338990 -2585940,-14672489 z m -19371630,-137588 2585940,14672491 -13688210,2413075 -2585940,-14672490 z m -14111560,29662490 c 123480,702050 927840,1061896 1524050,666771 472740,-313982 1040730,-497432 1651050,-497432 239900,0 469210,28224 691470,81140 694990,165811 1326490,-444514 1203010,-1146563 l -1337070,-7592016 13688210,-2413077 2585940,14672490 -13688210,2413077 -3520,-10592 c -116420,-659716 -871390,-934891 -1418210,-550351 -486850,345733 -1083060,546823 -1725140,546823 -1474660,0 -2695310,-1061895 -2949320,-2462466 l -13275440,2338989 -2585940,-14672489 13688210,-2413075 z m -14206800,29147416 -13688210,2413080 -2585950,-14672490 13688210,-2413080 z m 8950250,-58943966 2585940,14672490 -13688210,2413077 -2585940,-14672491 z m -12255890,40182656 -13688210,2413080 -2585940,-14672494 13688210,-2413078 z m -15854330,-41325692 433930,-2462466 c 70560,-409235 462150,-680883 867860,-606797 l 7002860,1231233 c 409240,70558 680880,462154 606800,867861 l -433930,2462466 c -70560,409235 -462160,680883 -867860,606797 l -7002860,-1231233 c -405710,-70558 -677360,-458626 -606800,-867861 z m -8195290,14647794 1354710,7687270 c 123480,702050 927840,1061895 1524050,666773 472740,-313984 1040730,-497435 1651050,-497435 239900,0 469210,28225 695000,81143 694990,165811 1326480,-444513 1203010,-1146565 l -1961510,-11130489 13688210,-2413076 2585940,14672491 -13271910,2338989 c 88190,433932 84660,899612 -42340,1379404 -282230,1083062 -1178320,1933285 -2271960,2155542 -525660,105838 -1030140,74086 -1488770,-63503 -603270,-183450 -1192420,310454 -1083060,931363 l 3520,14115 -13688210,2413075 -2585940,-14672490 z m 5895110,33433808 -13688210,2413070 -2585940,-14672487 13688200,-2413078 z m -26081680,-254010 h 5200100 c 829060,0 1499360,670300 1499360,1499350 v 1703970 c -179930,246950 -289290,550350 -289290,881970 0,331630 109360,631500 289290,881980 v 1735720 c 0,829050 -670300,1499350 -1499360,1499350 h -5200100 c -829060,0 -1499360,-670300 -1499360,-1499350 v -1746310 c 176400,-246950 282230,-543290 282230,-867860 0,-324570 -105830,-624430 -282230,-867860 v -1714550 c 0,-832590 670300,-1506410 1499360,-1506410 z m 5203630,19696200 c 0,1435850 -1164200,2600050 -2600050,2600050 -1435850,0 -2600060,-1164200 -2600060,-2600050 0,-1435850 1164210,-2600050 2600060,-2600050 1439380,0 2600050,1164200 2600050,2600050 z m -38341090,-59631905 13688200,2413076 -1961500,11123435 c -123480,702049 504490,1308846 1199480,1146563 215200,-49389 440980,-77613 673830,-77613 613850,0 1185370,183450 1658100,500959 599750,398652 1407630,49391 1534640,-659715 l 1358230,-7697853 13688210,2413077 -2585940,14672490 -13688210,-2413077 v -7045 c 112890,-631493 -486850,-1125395 -1100700,-938418 -458630,137587 -959590,169338 -1481710,63501 -1100700,-218729 -2000320,-1072477 -2282550,-2155539 -123470,-479793 -127000,-949003 -42330,-1379404 l -13250750,-2335462 z m 28533560,27930298 -2585940,14672487 -13688210,-2413070 2585940,-14672495 z m -18154520,-6755907 -2585940,14672494 -13688210,-2413080 2585940,-14672492 z m -3305630,18761504 -2585940,14672490 -13688208,-2413080 2585938,-14672490 z m -25231459,-46691801 13688209,2413075 -2585940,14672490 -13688212,-2413075 z m -19364580,141115 13688207,2413076 -2585943,14672490 -13688207,-2413075 z m 10396688,21174390 -1337071,7588489 c -123476,702049 508017,1308846 1199482,1146563 215202,-49389 444513,-77613 673827,-77613 610325,0 1178315,183450 1651053,497432 596212,395125 1400571,38806 1524048,-666771 l 1947394,-11042291 13688208,2413075 -2585943,14672490 -13271916,-2338992 c -254009,1400574 -1474659,2465996 -2949316,2465996 -642076,0 -1238288,-201090 -1725138,-546823 -536239,-381013 -1284152,-98780 -1397044,546823 l -3522,14115 -13688208,-2413078 2585941,-14672489 z m -49136437,-20899704 13688210,2413076 -1330015,7564283 c -123477,702050 508017,1312374 1203011,1146564 222257,-52919 458626,-81142 698522,-81142 610324,0 1174787,183451 1647522,493905 596215,395123 1400574,35279 1524048,-666771 l 1940340,-11007013 13688208,2413076 -2585943,14672489 -13268389,-2338990 c -264590,1382932 -1481714,2430715 -2945786,2430715 -645606,0 -1238290,-204617 -1728665,-550351 -546823,-388067 -1305321,-109851 -1421741,549862 l -7044,45864 -13688210,-2413075 z m -3305632,18761802 13688208,2413078 -2585942,14672487 -13691737,-2409548 z m 16778641,14534904 2585943,-14672490 13688207,2413075 -2585943,14672490 z m 16062476,18623724 88197,-493900 2413078,-13688210 v 0 l 88195,-493910 13688210,2413080 -88197,493900 -2501273,14182120 z m 31986545,25338620 H 80282319 v -14901810 h 13899883 z m -12621962,-25479740 2585943,-14672490 13688208,2413080 -2585943,14672490 z m 17212569,13801100 c -1435850,0 -2600055,-1164200 -2600055,-2600050 0,-1435850 1164205,-2600050 2600055,-2600050 1435851,0 2600051,1164200 2600051,2600050 0,1435850 -1164200,2600050 -2600051,2600050 z m 15307511,21576570 -13427150,-3598440 3855990,-14393790 13427140,3598450 z m 3792480,-21865850 2585940,-14672490 13688210,2413070 -2585940,14672490 z m 43086110,16676330 h -7050 v 7203950 h -3055150 c -254010,469210 -744390,793770 -1315900,793770 -571520,0 -1061900,-324560 -1315910,-793770 h -2141430 v -483320 h -16937390 v 483320 h -2166120 c -254010,469210 -744390,793770 -1315900,793770 -571520,0 -1061900,-324560 -1315910,-793770 h -3019870 l 3520,-18249770 32580050,-3520 v 8265840 h 7050 z m -3199800,-14263260 -2585940,-14672490 13688210,-2413070 2585940,14672490 z m 17477160,19452780 -3855980,-14393780 13427140,-3598450 3855990,14393790 z m 15318090,-21573040 c -1435850,0 -2600050,-1164200 -2600050,-2600050 0,-1435850 1164200,-2600060 2600050,-2600060 1435860,0 2600060,1164210 2600060,2600060 0,1435850 -1164200,2600050 -2600060,2600050 z m 3513780,-11388020 -2585940,-14672490 13688210,-2413080 2585940,14672490 z m 14969980,23063130 h -13899890 v -14901810 h 13899890 z m 4398130,-22925540 -2585940,-14672490 13688210,-2413080 2585940,14672490 z m 13473010,-33296219 13688210,-2413075 2585940,14672066 -13688210,2413075 z m 28571800,52389899 -7420,-42340 c -91720,-529180 -705570,-751440 -1135980,-433930 -497430,363370 -1107750,578580 -1767470,578580 -1527570,0 -2783500,-1139510 -2974010,-2617700 l -13483590,2377800 -2585940,-14672490 13688210,-2413080 1989730,11289250 c 130530,737330 984280,1065420 1587550,620910 497430,-366900 1111280,-582110 1778050,-582110 172870,0 342210,14120 504490,42340 687940,116420 1298070,-444520 1174590,-1132450 l -1354510,-7683740 13688210,-2413080 1619300,9183090 970510,5492930 z m -232749470,-17036420 13688209,2413080 -1330015,7563790 c -123477,702050 508016,1312380 1203011,1146570 222256,-52920 458625,-81150 698522,-81150 610323,0 1174786,183460 1647521,493910 596215,395120 1400574,35280 1524048,-666770 l 1940340,-11007020 13688207,2413080 -2585943,14672490 -13268388,-2338990 c -264591,1382930 -1481714,2430710 -2945785,2430710 -645606,0 -1238291,-204610 -1728666,-550350 -546823,-388060 -1305321,-109360 -1421740,550350 l -7044,45870 -13688209,-2413080 z m 3314041,-18814690 13688208,2413080 -2585942,14672480 -13691736,-2409550 z m 16778639,14534900 2585943,-14672490 13688208,2413080 -2585943,14672480 z m 223039570,141350 -13688200,2413080 -2585950,-14672490 13688210,-2413080 z m -35645780,-12400530 13688210,-2413070 2585940,14672060 -13688210,2413080 z m -13476090,33243460 -2585940,-14672490 13688210,-2413070 2585940,14672490 z m -157852477,-2413310 88197,-493900 2413078,-13688210 v 0 l 88195,-493900 13688210,2413070 -88197,493910 -2501273,14182110 z m -41940342,5232350 c -1631918,-287490 -2721688,-1843610 -2433926,-3475480 m 41452800,5740400 c 460659,-82540 711016,-307240 826268,-604820 m 0,0 1713732,-3459180 m 16459200,2946400 -16459200,-2946400 m 17932400,5994400 -1473200,-3048000 m 19277646,9217500 -2259646,-4924900 m 0,0 c -149129,-385050 -519586,-638840 -932504,-638840 m 103371739,6169940 c 308260,-82540 558640,-307060 673890,-604640 m 0,0 2259650,-4924900 m 0,0 c 149130,-385050 519590,-638840 932500,-638840 m 0,0 13926500,3840 m 0,0 c 320190,-87320 570550,-312020 685800,-609600 m 0,0 1473200,-3048000 m 0,0 16459200,-2946400 m 1713730,3459190 -1713730,-3459190 m 2540000,4064000 c -460660,-82530 -711020,-307240 -826270,-604810 m 826270,604810 39018870,-2264920 m 0,0 c 1631920,-287490 2721690,-1843610 2433930,-3475480 m 0,0 -13327550,-74945625"
   sodipodi:nodetypes="cccccccccccscccccccssccccccccccccccccccccccccccscccccccccccccsccccccccscccccccccccsccccccccsccccccccccccccccccccccccccccccccscccccccccccccccccccssscscsssscscsssssssccccscccccccccccccccccccccccccccccccccccccccccsccccccsccccccccccsccccccsccccccccccccccccccccccccccccccccccsssssccccccccccccccsccccccscccccccccccccccccssssscccccccccccccccccccccccsccccccscccccccccccsccccccsccccccccccccccccccccccccccccccccccccccccccccccccccccccccccccccccccccccccccccc" /></svg>
