<?xml version="1.0" encoding="UTF-8" standalone="no"?>
<!-- Generator: Adobe Illustrator 25.2.3, SVG Export Plug-In . SVG Version: 6.00 Build 0)  -->

<svg
   version="1.1"
   x="0px"
   y="0px"
   viewBox="0 0 984.58529 405.06289"
   xml:space="preserve"
   id="svg28012"
   sodipodi:docname="reviungdash-bottom-plate.svg"
   width="984.58533"
   height="405.0629"
   inkscape:version="1.2.2 (b0a8486541, 2022-12-01)"
   xmlns:inkscape="http://www.inkscape.org/namespaces/inkscape"
   xmlns:sodipodi="http://sodipodi.sourceforge.net/DTD/sodipodi-0.dtd"
   xmlns="http://www.w3.org/2000/svg"
   xmlns:svg="http://www.w3.org/2000/svg"><defs
   id="defs28016" /><sodipodi:namedview
   id="namedview28014"
   pagecolor="#ffffff"
   bordercolor="#999999"
   borderopacity="1"
   inkscape:showpageshadow="0"
   inkscape:pageopacity="0"
   inkscape:pagecheckerboard="0"
   inkscape:deskcolor="#d1d1d1"
   showgrid="false"
   inkscape:zoom="3.6503254"
   inkscape:cx="778.28678"
   inkscape:cy="318.32779"
   inkscape:window-width="1920"
   inkscape:window-height="1013"
   inkscape:window-x="0"
   inkscape:window-y="0"
   inkscape:window-maximized="1"
   inkscape:current-layer="text30326" />
<style
   type="text/css"
   id="style27959">
	.st0{fill:none;stroke:#231815;stroke-width:0.25;stroke-miterlimit:10;}
	.st1{fill:#E73A18;}
	.st2{fill:#231815;}
	.st3{font-family:'ArialMT';}
	.st4{font-size:14px;}
</style>
<g
   id="cut"
   transform="matrix(1.3329037,0,0,1.3329037,13.462963,-0.12888055)">
	
</g>
<g
   id="graving2"
   transform="matrix(1.3329037,0,0,1.3329037,13.462963,-0.12888055)">
	<g
   id="g27996">
		<path
   class="st1"
   d="M 3,13.92 V 2.47 h 4.87 c 1.22,0 2.11,0.1 2.67,0.31 0.55,0.21 1,0.57 1.33,1.1 0.33,0.53 0.5,1.13 0.5,1.8 0,0.86 -0.25,1.57 -0.76,2.13 -0.51,0.56 -1.26,0.91 -2.27,1.06 0.5,0.29 0.91,0.61 1.24,0.96 0.33,0.35 0.76,0.97 1.32,1.86 l 1.4,2.23 H 10.53 L 8.86,11.43 C 8.27,10.54 7.86,9.98 7.64,9.75 7.42,9.52 7.19,9.36 6.94,9.27 6.7,9.18 6.31,9.14 5.78,9.14 H 5.31 v 4.78 H 3 Z M 5.31,7.31 H 7.02 C 8.13,7.31 8.82,7.26 9.1,7.17 9.38,7.07 9.6,6.91 9.75,6.68 9.91,6.45 9.98,6.16 9.98,5.82 9.98,5.43 9.88,5.12 9.67,4.89 9.47,4.65 9.18,4.5 8.81,4.44 8.62,4.42 8.06,4.4 7.12,4.4 h -1.8 v 2.91 z"
   id="path27964" />
		<path
   class="st1"
   d="m 19.34,11.28 2.19,0.37 c -0.28,0.8 -0.73,1.41 -1.33,1.83 -0.61,0.42 -1.37,0.63 -2.28,0.63 -1.44,0 -2.51,-0.47 -3.2,-1.41 -0.55,-0.75 -0.82,-1.71 -0.82,-2.86 0,-1.38 0.36,-2.45 1.08,-3.23 0.72,-0.78 1.63,-1.17 2.73,-1.17 1.23,0 2.21,0.41 2.92,1.22 0.71,0.82 1.05,2.06 1.02,3.75 h -5.5 c 0.02,0.65 0.19,1.16 0.53,1.52 0.34,0.36 0.76,0.54 1.27,0.54 0.34,0 0.63,-0.09 0.87,-0.28 0.24,-0.19 0.4,-0.5 0.52,-0.91 z M 19.46,9.06 C 19.44,8.42 19.28,7.94 18.97,7.61 18.66,7.28 18.28,7.11 17.83,7.11 c -0.48,0 -0.88,0.17 -1.19,0.52 -0.31,0.35 -0.47,0.82 -0.46,1.42 h 3.28 z"
   id="path27966" />
		<path
   class="st1"
   d="M 31.04,13.92 H 29 V 12.7 c -0.34,0.47 -0.74,0.83 -1.2,1.06 -0.46,0.23 -0.93,0.35 -1.39,0.35 -0.95,0 -1.77,-0.38 -2.45,-1.15 -0.68,-0.77 -1.02,-1.84 -1.02,-3.21 0,-1.41 0.33,-2.48 0.99,-3.21 0.66,-0.73 1.5,-1.1 2.51,-1.1 0.93,0 1.73,0.39 2.41,1.16 V 2.47 h 2.2 V 13.92 Z M 25.18,9.59 c 0,0.89 0.12,1.53 0.37,1.92 0.35,0.57 0.85,0.86 1.48,0.86 0.5,0 0.93,-0.21 1.29,-0.64 0.35,-0.43 0.53,-1.07 0.53,-1.93 0,-0.95 -0.17,-1.64 -0.52,-2.06 -0.34,-0.42 -0.78,-0.63 -1.32,-0.63 -0.52,0 -0.96,0.21 -1.31,0.62 -0.34,0.42 -0.52,1.04 -0.52,1.86 z"
   id="path27968" />
		<path
   class="st1"
   d="M 39.29,8.15 37.3,7.79 c 0.22,-0.8 0.61,-1.4 1.16,-1.78 0.55,-0.39 1.36,-0.58 2.44,-0.58 0.98,0 1.71,0.12 2.19,0.35 0.48,0.23 0.82,0.53 1.01,0.88 0.2,0.36 0.29,1.01 0.29,1.96 l -0.02,2.56 c 0,0.73 0.04,1.27 0.11,1.61 0.07,0.35 0.2,0.72 0.39,1.11 H 42.7 c -0.06,-0.15 -0.13,-0.36 -0.21,-0.65 -0.04,-0.13 -0.06,-0.22 -0.08,-0.26 -0.38,0.36 -0.78,0.64 -1.2,0.82 -0.43,0.18 -0.88,0.27 -1.37,0.27 -0.85,0 -1.53,-0.23 -2.02,-0.7 -0.49,-0.46 -0.74,-1.05 -0.74,-1.76 0,-0.47 0.11,-0.89 0.34,-1.25 0.22,-0.37 0.54,-0.65 0.94,-0.84 0.4,-0.2 0.99,-0.37 1.75,-0.51 1.03,-0.19 1.74,-0.37 2.13,-0.54 V 8.29 c 0,-0.42 -0.1,-0.72 -0.31,-0.9 -0.21,-0.18 -0.6,-0.27 -1.18,-0.27 -0.39,0 -0.7,0.08 -0.91,0.23 -0.24,0.15 -0.41,0.42 -0.55,0.8 z m 2.94,1.78 c -0.28,0.09 -0.73,0.21 -1.34,0.34 -0.61,0.13 -1.01,0.26 -1.2,0.38 -0.29,0.2 -0.43,0.46 -0.43,0.77 0,0.31 0.11,0.57 0.34,0.8 0.23,0.22 0.52,0.34 0.88,0.34 0.4,0 0.77,-0.13 1.13,-0.39 0.27,-0.2 0.44,-0.44 0.52,-0.73 0.06,-0.19 0.09,-0.54 0.09,-1.07 V 9.93 Z"
   id="path27970" />
		<path
   class="st1"
   d="m 48.65,13.92 h -2.2 v -8.3 h 2.04 V 6.8 c 0.35,-0.56 0.66,-0.92 0.94,-1.1 0.28,-0.18 0.59,-0.27 0.95,-0.27 0.5,0 0.98,0.14 1.45,0.41 L 51.15,7.75 C 50.78,7.51 50.44,7.39 50.12,7.39 c -0.31,0 -0.57,0.08 -0.78,0.25 -0.21,0.17 -0.38,0.48 -0.5,0.92 -0.12,0.44 -0.18,1.37 -0.18,2.78 v 2.58 z"
   id="path27972" />
		<path
   class="st1"
   d="m 57.58,11.28 2.19,0.37 c -0.28,0.8 -0.73,1.41 -1.33,1.83 -0.61,0.42 -1.37,0.63 -2.28,0.63 -1.44,0 -2.51,-0.47 -3.2,-1.41 -0.55,-0.75 -0.82,-1.71 -0.82,-2.86 0,-1.38 0.36,-2.45 1.08,-3.23 0.72,-0.78 1.63,-1.17 2.73,-1.17 1.23,0 2.21,0.41 2.92,1.22 0.71,0.82 1.05,2.06 1.02,3.75 h -5.5 c 0.02,0.65 0.19,1.16 0.53,1.52 0.34,0.36 0.76,0.54 1.27,0.54 0.34,0 0.63,-0.09 0.87,-0.28 0.24,-0.19 0.4,-0.5 0.52,-0.91 z M 57.7,9.06 C 57.68,8.42 57.52,7.94 57.21,7.61 56.9,7.28 56.52,7.11 56.07,7.11 c -0.48,0 -0.88,0.17 -1.19,0.52 -0.31,0.35 -0.47,0.82 -0.46,1.42 h 3.28 z"
   id="path27974" />
		<path
   class="st1"
   d="M 63.31,8.15 61.32,7.79 c 0.22,-0.8 0.61,-1.4 1.16,-1.78 0.55,-0.39 1.36,-0.58 2.44,-0.58 0.98,0 1.71,0.12 2.19,0.35 0.48,0.23 0.82,0.53 1.01,0.88 0.2,0.36 0.29,1.01 0.29,1.96 l -0.02,2.56 c 0,0.73 0.04,1.27 0.11,1.61 0.07,0.35 0.2,0.72 0.39,1.11 h -2.17 c -0.06,-0.15 -0.13,-0.36 -0.21,-0.65 -0.04,-0.13 -0.06,-0.22 -0.08,-0.26 -0.38,0.36 -0.78,0.64 -1.2,0.82 -0.43,0.18 -0.88,0.27 -1.37,0.27 -0.85,0 -1.53,-0.23 -2.02,-0.7 -0.49,-0.46 -0.74,-1.05 -0.74,-1.76 0,-0.47 0.11,-0.89 0.34,-1.25 0.22,-0.37 0.54,-0.65 0.94,-0.84 0.4,-0.2 0.99,-0.37 1.75,-0.51 1.03,-0.19 1.74,-0.37 2.13,-0.54 V 8.29 c 0,-0.42 -0.1,-0.72 -0.31,-0.9 -0.21,-0.18 -0.6,-0.27 -1.18,-0.27 -0.39,0 -0.7,0.08 -0.91,0.23 -0.23,0.15 -0.41,0.42 -0.55,0.8 z m 2.94,1.78 c -0.28,0.09 -0.73,0.21 -1.34,0.34 -0.61,0.13 -1.01,0.26 -1.2,0.38 -0.29,0.2 -0.43,0.46 -0.43,0.77 0,0.31 0.11,0.57 0.34,0.8 0.23,0.22 0.52,0.34 0.88,0.34 0.4,0 0.77,-0.13 1.13,-0.39 0.27,-0.2 0.44,-0.44 0.52,-0.73 0.06,-0.19 0.09,-0.54 0.09,-1.07 V 9.93 Z"
   id="path27976" />
		<path
   class="st1"
   d="M 75.02,4.5 V 2.47 h 2.2 V 4.5 Z m 0,9.42 v -8.3 h 2.2 v 8.3 z"
   id="path27978" />
		<path
   class="st1"
   d="m 78.69,11.55 2.2,-0.34 c 0.09,0.43 0.28,0.75 0.57,0.97 0.29,0.22 0.69,0.33 1.2,0.33 0.57,0 0.99,-0.1 1.28,-0.31 0.19,-0.15 0.29,-0.34 0.29,-0.59 0,-0.17 -0.05,-0.3 -0.16,-0.41 C 83.96,11.1 83.72,11 83.34,10.91 81.57,10.52 80.45,10.16 79.97,9.84 79.31,9.39 78.99,8.77 78.99,7.97 c 0,-0.72 0.28,-1.32 0.85,-1.81 0.57,-0.49 1.45,-0.73 2.64,-0.73 1.14,0 1.98,0.19 2.53,0.55 0.55,0.37 0.93,0.92 1.14,1.64 L 84.08,8 C 83.99,7.68 83.82,7.43 83.58,7.26 83.33,7.09 82.98,7 82.52,7 81.94,7 81.53,7.08 81.28,7.24 81.11,7.35 81.03,7.5 81.03,7.69 c 0,0.16 0.07,0.29 0.22,0.4 0.2,0.15 0.88,0.35 2.05,0.62 1.17,0.27 1.99,0.59 2.45,0.98 0.46,0.39 0.69,0.94 0.69,1.63 0,0.76 -0.32,1.41 -0.95,1.96 -0.64,0.55 -1.58,0.82 -2.82,0.82 -1.13,0 -2.02,-0.23 -2.68,-0.69 -0.67,-0.45 -1.1,-1.07 -1.3,-1.86 z"
   id="path27980" />
		<path
   class="st1"
   d="M 98.15,9.71 V 7.78 h 4.98 v 4.56 c -0.48,0.47 -1.19,0.88 -2.11,1.24 -0.92,0.36 -1.85,0.54 -2.79,0.54 -1.2,0 -2.24,-0.25 -3.13,-0.75 -0.89,-0.5 -1.56,-1.22 -2.01,-2.16 -0.45,-0.93 -0.67,-1.95 -0.67,-3.05 0,-1.19 0.25,-2.25 0.75,-3.18 0.5,-0.93 1.23,-1.64 2.2,-2.13 0.73,-0.38 1.65,-0.57 2.74,-0.57 1.42,0 2.53,0.3 3.33,0.89 0.8,0.6 1.31,1.42 1.54,2.47 l -2.3,0.43 c -0.16,-0.56 -0.46,-1.01 -0.91,-1.33 -0.45,-0.33 -1,-0.49 -1.67,-0.49 -1.01,0 -1.81,0.32 -2.41,0.96 -0.6,0.64 -0.89,1.59 -0.89,2.85 0,1.36 0.3,2.38 0.91,3.06 0.6,0.68 1.4,1.02 2.38,1.02 0.48,0 0.97,-0.09 1.46,-0.29 0.49,-0.19 0.9,-0.42 1.25,-0.69 V 9.71 Z"
   id="path27982" />
		<path
   class="st1"
   d="m 107.35,13.92 h -2.2 v -8.3 h 2.04 V 6.8 c 0.35,-0.56 0.66,-0.92 0.94,-1.1 0.28,-0.18 0.59,-0.27 0.95,-0.27 0.5,0 0.98,0.14 1.45,0.41 l -0.68,1.91 c -0.37,-0.24 -0.71,-0.36 -1.03,-0.36 -0.31,0 -0.57,0.08 -0.78,0.25 -0.21,0.17 -0.38,0.48 -0.5,0.92 -0.12,0.44 -0.18,1.37 -0.18,2.78 v 2.58 z"
   id="path27984" />
		<path
   class="st1"
   d="m 113.12,8.15 -1.99,-0.36 c 0.22,-0.8 0.61,-1.4 1.16,-1.78 0.55,-0.39 1.36,-0.58 2.44,-0.58 0.98,0 1.71,0.12 2.19,0.35 0.48,0.23 0.82,0.53 1.01,0.88 0.2,0.36 0.29,1.01 0.29,1.96 l -0.02,2.56 c 0,0.73 0.04,1.27 0.11,1.61 0.07,0.35 0.2,0.72 0.39,1.11 h -2.17 c -0.06,-0.15 -0.13,-0.36 -0.21,-0.65 -0.04,-0.13 -0.06,-0.22 -0.08,-0.26 -0.38,0.36 -0.78,0.64 -1.2,0.82 -0.43,0.18 -0.88,0.27 -1.37,0.27 -0.85,0 -1.53,-0.23 -2.02,-0.7 -0.49,-0.46 -0.74,-1.05 -0.74,-1.76 0,-0.47 0.11,-0.89 0.34,-1.25 0.22,-0.37 0.54,-0.65 0.94,-0.84 0.4,-0.2 0.99,-0.37 1.75,-0.51 1.03,-0.19 1.74,-0.37 2.13,-0.54 V 8.29 c 0,-0.42 -0.1,-0.72 -0.31,-0.9 -0.21,-0.18 -0.6,-0.27 -1.18,-0.27 -0.39,0 -0.7,0.08 -0.91,0.23 -0.24,0.15 -0.42,0.42 -0.55,0.8 z m 2.94,1.78 c -0.28,0.09 -0.73,0.21 -1.34,0.34 -0.61,0.13 -1.01,0.26 -1.2,0.38 -0.29,0.2 -0.43,0.46 -0.43,0.77 0,0.31 0.11,0.57 0.34,0.8 0.23,0.22 0.52,0.34 0.88,0.34 0.4,0 0.77,-0.13 1.13,-0.39 0.27,-0.2 0.44,-0.44 0.52,-0.73 0.06,-0.19 0.09,-0.54 0.09,-1.07 V 9.93 Z"
   id="path27986" />
		<path
   class="st1"
   d="m 122.66,13.92 -3.34,-8.3 h 2.3 l 1.56,4.23 0.45,1.41 c 0.12,-0.36 0.2,-0.6 0.23,-0.71 0.07,-0.23 0.15,-0.47 0.23,-0.7 l 1.58,-4.23 h 2.26 l -3.3,8.3 z"
   id="path27988" />
		<path
   class="st1"
   d="M 129.27,4.5 V 2.47 h 2.2 V 4.5 Z m 0,9.42 v -8.3 h 2.2 v 8.3 z"
   id="path27990" />
		<path
   class="st1"
   d="m 141.27,13.92 h -2.2 V 9.68 c 0,-0.9 -0.05,-1.48 -0.14,-1.74 -0.09,-0.26 -0.25,-0.47 -0.46,-0.61 -0.21,-0.15 -0.46,-0.22 -0.76,-0.22 -0.38,0 -0.72,0.1 -1.02,0.31 -0.3,0.21 -0.51,0.48 -0.62,0.83 -0.11,0.34 -0.17,0.98 -0.17,1.91 v 3.76 h -2.2 v -8.3 h 2.04 v 1.22 c 0.72,-0.94 1.64,-1.41 2.73,-1.41 0.48,0 0.93,0.09 1.33,0.26 0.4,0.17 0.7,0.4 0.91,0.67 0.21,0.27 0.35,0.58 0.43,0.92 0.08,0.34 0.12,0.84 0.12,1.48 v 5.16 z"
   id="path27992" />
		<path
   class="st1"
   d="m 143.29,14.47 2.51,0.3 c 0.04,0.29 0.14,0.49 0.29,0.6 0.21,0.16 0.54,0.23 0.98,0.23 0.57,0 1,-0.09 1.29,-0.26 0.19,-0.11 0.34,-0.3 0.44,-0.55 0.07,-0.18 0.1,-0.52 0.1,-1.01 v -1.21 c -0.66,0.9 -1.48,1.34 -2.48,1.34 -1.11,0 -2,-0.47 -2.65,-1.41 -0.51,-0.74 -0.77,-1.67 -0.77,-2.78 0,-1.39 0.33,-2.45 1,-3.19 0.67,-0.73 1.5,-1.1 2.5,-1.1 1.03,0 1.87,0.45 2.54,1.35 V 5.62 h 2.05 v 7.45 c 0,0.98 -0.08,1.71 -0.24,2.2 -0.16,0.48 -0.39,0.86 -0.68,1.14 -0.29,0.28 -0.68,0.49 -1.17,0.65 -0.49,0.16 -1.1,0.23 -1.85,0.23 -1.41,0 -2.4,-0.24 -2.99,-0.72 -0.59,-0.48 -0.88,-1.09 -0.88,-1.83 0,-0.08 0,-0.17 0.01,-0.27 z m 1.96,-4.87 c 0,0.88 0.17,1.52 0.51,1.93 0.34,0.41 0.76,0.61 1.26,0.61 0.54,0 0.99,-0.21 1.36,-0.63 0.37,-0.42 0.55,-1.04 0.55,-1.86 0,-0.86 -0.18,-1.5 -0.53,-1.91 -0.35,-0.42 -0.8,-0.62 -1.34,-0.62 -0.53,0 -0.96,0.2 -1.3,0.61 -0.34,0.41 -0.51,1.03 -0.51,1.87 z"
   id="path27994" />
	</g>
	<g
   id="g28002"
   style="display:inline">
		
		<path
   id="path28000"
   style="display:inline"
   class="st1"
   d="m 710.44,188.58 -6.66,-38.41 0.08,-0.01 -17.06,-96.73 c -0.01,-0.04 -0.01,-0.07 -0.01,-0.11 l -0.18,-1.02 -2.44,-13.82 -0.07,0.01 -1.06,-5.82 c -0.23,-1.28 -1.38,-2.21 -2.72,-2.21 H 517.73 c -0.32,0 -0.64,0.03 -0.95,0.08 l -50.33,8.94 c -1.85,0.33 -3.42,1.55 -4.18,3.27 l -1.79,3.83 c -0.39,0.84 -1.17,1.43 -2.08,1.59 l -18.53,3.2 c -3.62,0.62 -5.71,4.47 -4.25,7.84 l 20.77,36.21 c 0.9,2.07 2.94,3.42 5.2,3.42 h 23.76 c 2.03,0 3.9,-1.08 4.91,-2.83 l 19.03,-33.04 c 1.01,-1.75 2.88,-2.83 4.91,-2.83 h 27.28 c 2.03,0 3.9,1.08 4.91,2.83 l 19.37,33.04 c 1.01,1.75 2.88,2.83 4.91,2.83 h 23.54 c 1.64,0 3.19,-0.71 4.27,-1.94 l 20.14,-34.95 c 1.08,-1.23 2.63,-1.94 4.27,-1.94 h 53.14 c 2.75,0 5.11,1.98 5.58,4.68 l 8.53,48.37 c 0.61,3.48 -2.07,6.66 -5.6,6.65 l -49.43,-0.13 c -1.88,0 -3.64,0.94 -4.7,2.5 l -30.8,53.07 c -1.06,1.57 -2.82,2.5 -4.71,2.5 h -58.25 c -2.23,-0.01 -4.25,1.29 -5.17,3.32 l -36.06,62.52 c -0.92,2.02 -2.94,3.32 -5.16,3.32 h -39.39 c -2.21,0 -4.22,-1.29 -5.15,-3.29 l -3.79,-8.2 c -0.93,-2.01 -2.94,-3.29 -5.15,-3.29 h -69.92 c -1.82,2.03 -4.45,3.32 -7.39,3.32 -2.94,0 -5.57,-1.29 -7.39,-3.32 h -69.83 c -2.21,0 -4.22,1.29 -5.15,3.29 l -3.79,8.2 c -0.93,2.01 -2.94,3.29 -5.15,3.29 h -39.7 c -2.21,0 -4.22,-1.28 -5.14,-3.29 L 187.1,180.9 c -0.93,-2 -2.94,-3.29 -5.15,-3.29 l -58.14,0.04 c -1.89,0 -3.65,-0.94 -4.71,-2.5 L 88.4,122.09 c -1.05,-1.57 -2.82,-2.5 -4.7,-2.5 H 34.07 c -3.52,0 -6.2,-3.18 -5.58,-6.65 l 8.5,-48.23 c 0.48,-2.71 2.83,-4.68 5.58,-4.68 h 53.16 c 1.64,0 3.19,0.71 4.27,1.94 l 19.95,34.97 c 1.08,1.23 2.63,1.94 4.27,1.94 h 23.9 c 2.03,0 3.9,-1.08 4.91,-2.83 L 171.95,63 c 1.01,-1.75 2.88,-2.83 4.91,-2.83 h 28.3 c 2.03,0 3.9,1.08 4.91,2.83 l 18.92,33.04 c 1.01,1.75 2.88,2.83 4.91,2.83 h 22.94 c 2.29,0 4.36,-1.38 5.24,-3.5 l 20.15,-35.03 c 1.3,-3.14 -0.44,-6.72 -3.72,-7.63 l -6.79,-3.02 -8.43,1.49 c -3.08,0.54 -6.02,-1.52 -6.57,-4.6 L 256.04,42.73 228.95,30.7 c -0.49,-0.14 -1.01,-0.21 -1.52,-0.21 H 38.09 c -1.34,0 -2.49,0.93 -2.72,2.21 l -1.74,10.27 -14.28,81.01 c -0.02,0.09 -0.06,0.17 -0.07,0.27 l -3.11,17.78 -1.37,7.76 h 0.01 l -6.77,38.74 c -0.27,1.45 0.74,2.84 2.24,3.1 l 19.02,3.3 c 2.34,0.4 4.68,-0.7 5.86,-2.75 l 11.3,-19.49 c 1.01,-1.75 2.88,-2.83 4.91,-2.83 h 20.81 c 2.03,0 3.9,1.08 4.91,2.83 l 9.16,20.17 c 0.84,1.46 2.28,2.46 3.94,2.75 l 69.12,12.13 c 1.32,0.23 2.28,1.34 2.28,2.63 v 42.75 c 0,1.48 1.24,2.67 2.77,2.67 h 47.25 c 1.14,0 2.16,0.67 2.58,1.7 l 7.51,19.7 c 0.32,0.79 1.01,1.39 1.86,1.61 l 66.69,17.93 h 137.88 l 67.2,-17.99 c 0.85,-0.22 1.54,-0.82 1.86,-1.61 l 7.44,-19.65 c 0.41,-1.02 1.44,-1.7 2.58,-1.7 h 47.24 c 1.53,0 2.77,-1.2 2.77,-2.67 v -42.9 c 0,-1.3 0.96,-2.41 2.28,-2.63 l 68.51,-11.91 c 1.67,-0.28 3.12,-1.29 3.97,-2.76 l 9.39,-20.24 c 1.01,-1.75 2.88,-2.83 4.91,-2.83 h 20.81 c 2.03,0 3.9,1.08 4.91,2.83 l 9.76,19.63 c 1.19,2.05 3.52,3.15 5.86,2.75 l 20.6,-3.38 c 1.48,-0.25 2.48,-1.64 2.22,-3.09 z M 554.29,52.98 c -3.91,0 -7.09,-3.17 -7.09,-7.09 0,-3.92 3.17,-7.09 7.09,-7.09 3.92,0 7.09,3.17 7.09,7.09 0,3.92 -3.17,7.09 -7.09,7.09 z m 14.19,14.19 c -3.91,0 -7.09,-3.17 -7.09,-7.09 0,-3.92 3.17,-7.09 7.09,-7.09 3.92,0 7.09,3.17 7.09,7.09 0,3.92 -3.18,7.09 -7.09,7.09 z m 14.17,-14.19 c -3.91,0 -7.09,-3.17 -7.09,-7.09 0,-3.92 3.17,-7.09 7.09,-7.09 3.92,0 7.09,3.17 7.09,7.09 0,3.92 -3.17,7.09 -7.09,7.09 z m 14.18,14.19 c -3.91,0 -7.09,-3.17 -7.09,-7.09 0,-3.92 3.17,-7.09 7.09,-7.09 3.92,0 7.09,3.17 7.09,7.09 0,3.92 -3.17,7.09 -7.09,7.09 z m 14.18,-14.19 c -3.91,0 -7.09,-3.17 -7.09,-7.09 0,-3.92 3.17,-7.09 7.09,-7.09 3.92,0 7.09,3.17 7.09,7.09 0,3.92 -3.18,7.09 -7.09,7.09 z M 634,39.078066 c 0.2,0.24 0.32,0.46 0.37,0.65 0.05,0.2 0.07,0.74 0.07,1.64 v 2.92 h -2.67 v -3.68 c 0,-0.59 -0.05,-0.96 -0.14,-1.1 -0.09,-0.14 -0.34,-0.21 -0.74,-0.21 v 4.99 h -2.88 v -11.07 h 2.04 c 1.36,0 2.28,0.05 2.76,0.16 0.48,0.1 0.87,0.37 1.18,0.8 0.3,0.43 0.46,1.12 0.46,2.06 0,0.86 -0.11,1.44 -0.32,1.74 -0.21,0.3 -0.64,0.47 -1.26,0.53 0.55,0.14 0.93,0.33 1.13,0.57 z m 6.54,5.21 h -4.99 v -11.07 h 4.8 v 2.21 h -1.92 v 2.1 h 1.8 v 2.11 h -1.8 v 2.43 h 2.11 z m 6.21,0 h -4.37 l -1.66,-11.07 h 3.04 c 0.35,3.05 0.6,5.63 0.76,7.74 0.15,-2.13 0.31,-4.03 0.47,-5.68 l 0.2,-2.06 h 3.04 z m 4.83,0 h -2.88 v -11.07 h 2.88 z m 7.69,-3.67 c 0,0.84 -0.03,1.43 -0.08,1.77 -0.05,0.34 -0.22,0.69 -0.49,1.05 -0.27,0.36 -0.62,0.63 -1.06,0.81 -0.44,0.19 -0.96,0.28 -1.56,0.28 -0.66,0 -1.24,-0.11 -1.75,-0.33 -0.51,-0.22 -0.88,-0.5 -1.13,-0.85 -0.25,-0.35 -0.4,-0.72 -0.44,-1.11 -0.05,-0.39 -0.07,-1.21 -0.07,-2.46 v -6.55 h 2.88 v 8.3 c 0,0.48 0.03,0.79 0.08,0.93 0.05,0.13 0.16,0.2 0.32,0.2 0.18,0 0.3,-0.07 0.35,-0.22 0.05,-0.15 0.08,-0.5 0.08,-1.05 v -8.16 h 2.88 v 7.39 z m 7.54,3.67 h -2.52 l -1.5,-5.03 v 5.03 h -2.41 v -11.07 h 2.41 l 1.61,4.98 v -4.98 h 2.41 z m 7.76,-7 h -2.88 v -1 c 0,-0.63 -0.03,-1.03 -0.08,-1.19 -0.05,-0.16 -0.18,-0.24 -0.39,-0.24 -0.18,0 -0.3,0.07 -0.36,0.21 -0.06,0.14 -0.1,0.49 -0.1,1.05 v 5.31 c 0,0.5 0.03,0.82 0.1,0.98 0.06,0.16 0.19,0.24 0.38,0.24 0.21,0 0.35,-0.09 0.43,-0.27 0.08,-0.18 0.11,-0.52 0.11,-1.04 v -1.31 h -0.58 v -1.68 h 3.37 v 5.94 h -1.81 l -0.27,-0.79 c -0.2,0.34 -0.44,0.6 -0.74,0.77 -0.3,0.17 -0.65,0.26 -1.06,0.26 -0.48,0 -0.94,-0.12 -1.36,-0.35 -0.42,-0.24 -0.74,-0.53 -0.96,-0.87 -0.22,-0.35 -0.36,-0.71 -0.41,-1.09 -0.05,-0.38 -0.08,-0.95 -0.08,-1.71 v -3.29 c 0,-1.06 0.06,-1.83 0.17,-2.3 0.11,-0.47 0.44,-0.92 0.98,-1.32 0.54,-0.4 1.24,-0.6 2.09,-0.6 0.84,0 1.54,0.17 2.1,0.52 0.56,0.35 0.92,0.76 1.09,1.23 0.17,0.48 0.25,1.17 0.25,2.08 v 0.46 z M 164.67,38.81 c 3.91,0 7.09,3.17 7.09,7.09 0,3.92 -3.17,7.09 -7.09,7.09 -3.92,0 -7.09,-3.17 -7.09,-7.09 0,-3.92 3.18,-7.09 7.09,-7.09 z M 150.5,53 c 3.91,0 7.09,3.17 7.09,7.09 0,3.92 -3.17,7.09 -7.09,7.09 -3.92,0 -7.09,-3.17 -7.09,-7.09 0,-3.92 3.17,-7.09 7.09,-7.09 z M 136.31,38.81 c 3.91,0 7.09,3.17 7.09,7.09 0,3.92 -3.17,7.09 -7.09,7.09 -3.92,0 -7.09,-3.17 -7.09,-7.09 0,-3.92 3.18,-7.09 7.09,-7.09 z M 122.14,53 c 3.91,0 7.09,3.17 7.09,7.09 0,3.92 -3.17,7.09 -7.09,7.09 -3.92,0 -7.09,-3.17 -7.09,-7.09 0,-3.92 3.17,-7.09 7.09,-7.09 z M 107.96,38.81 c 3.91,0 7.09,3.17 7.09,7.09 0,3.92 -3.17,7.09 -7.09,7.09 -3.91,0 -7.09,-3.17 -7.09,-7.09 0,-3.92 3.17,-7.09 7.09,-7.09 z M 33.68,167.16 c -0.68,3.85 -4.36,6.43 -8.21,5.75 -3.85,-0.68 -6.43,-4.36 -5.75,-8.21 0.68,-3.85 4.36,-6.43 8.21,-5.75 3.86,0.68 6.43,4.36 5.75,8.21 z M 30.4,144.98 c -3.85,-0.68 -6.43,-4.36 -5.75,-8.21 0.68,-3.85 4.36,-6.43 8.21,-5.75 3.85,0.68 6.43,4.36 5.75,8.21 -0.68,3.85 -4.36,6.43 -8.21,5.75 z m 19.72,10.68 c -0.68,3.85 -4.36,6.43 -8.21,5.75 -3.85,-0.68 -6.43,-4.36 -5.75,-8.21 0.68,-3.85 4.36,-6.43 8.21,-5.75 3.85,0.68 6.43,4.36 5.75,8.21 z m 131.23,90.31 c -2.77,2.77 -7.25,2.77 -10.02,0 -2.77,-2.77 -2.77,-7.25 0,-10.02 2.77,-2.77 7.25,-2.77 10.02,0 2.77,2.77 2.77,7.25 0,10.02 z m 0.01,-20.06 c -2.77,2.77 -7.25,2.77 -10.02,0 -2.77,-2.77 -2.77,-7.25 0,-10.02 2.77,-2.77 7.25,-2.77 10.02,0 2.77,2.77 2.77,7.25 0,10.02 z m 20.05,20.05 c -2.77,2.77 -7.25,2.77 -10.02,0 -2.77,-2.77 -2.77,-7.25 0,-10.02 2.77,-2.77 7.25,-2.77 10.02,0 2.77,2.77 2.77,7.26 0,10.02 z m 274.26,23.9 h -70.39 l -4.07,15.04 c -0.67,2.47 -2.91,4.19 -5.47,4.19 H 323.3 c -2.55,0 -4.79,-1.7 -5.46,-4.16 l -4.16,-15.07 h -70.43 c -2.35,0 -4.25,-1.9 -4.25,-4.25 0,-2.35 1.9,-4.25 4.25,-4.25 h 69.11 l 6.48,-16.77 c 0.84,-2.18 2.95,-3.62 5.29,-3.62 h 70.35 c 2.31,0 4.39,1.4 5.26,3.55 l 6.81,16.85 h 69.14 c 2.35,0 4.25,1.9 4.25,4.25 -0.01,2.33 -1.92,4.24 -4.27,4.24 z m 51.78,-23.9 c -2.77,2.77 -7.25,2.77 -10.02,0 -2.77,-2.77 -2.77,-7.25 0,-10.02 2.77,-2.77 7.25,-2.77 10.02,0 2.76,2.77 2.76,7.26 0,10.02 z m 10.03,-30.07 c 2.77,-2.77 7.25,-2.77 10.02,0 2.77,2.77 2.77,7.25 0,10.02 -2.77,2.77 -7.25,2.77 -10.02,0 -2.77,-2.77 -2.77,-7.25 0,-10.02 z m 10.03,30.08 c -2.77,2.77 -7.25,2.77 -10.02,0 -2.77,-2.77 -2.77,-7.25 0,-10.02 2.77,-2.77 7.25,-2.77 10.02,0 2.77,2.77 2.77,7.25 0,10.02 z M 686.14,131.02 c 3.85,-0.68 7.53,1.89 8.21,5.75 0.68,3.86 -1.89,7.53 -5.75,8.21 -3.86,0.68 -7.53,-1.89 -8.21,-5.75 -0.68,-3.86 1.89,-7.53 5.75,-8.21 z m -9.05,30.39 c -3.85,0.68 -7.53,-1.89 -8.21,-5.75 -0.68,-3.86 1.89,-7.53 5.75,-8.21 3.86,-0.68 7.53,1.89 8.21,5.75 0.68,3.86 -1.9,7.53 -5.75,8.21 z m 16.43,11.5 c -3.85,0.68 -7.53,-1.89 -8.21,-5.75 -0.68,-3.86 1.89,-7.53 5.75,-8.21 3.85,-0.68 7.53,1.89 8.21,5.75 0.68,3.86 -1.89,7.53 -5.75,8.21 z M 630.89,35.108066 v 2.46 c 0.32,0 0.55,-0.04 0.68,-0.13 0.13,-0.09 0.19,-0.38 0.19,-0.87 v -0.61 c 0,-0.35 -0.06,-0.58 -0.19,-0.69 -0.12,-0.1 -0.35,-0.16 -0.68,-0.16 z"
   sodipodi:nodetypes="cccccccccssccccccccssccssccssccssccccccscccssccscscsccssccccccssccssccssccssccssccccccccssccccccccccccssccccssssccccccccssssccccsscccccsssssssssssssssssssssssssscsccssccccsccsscsccccccccccccccccccccccccccccsscssscsccscssscccccccccccccccccsssssscssscccccccssccssssssscsccsssssssssssssssssssssssssssscssssssssssssssssssssscssscsccssccsssccssccscsssscssssssssssscssscssssscscscccssscc" />
	</g>
</g>
<g
   id="note"
   transform="matrix(1.3329037,0,0,1.3329037,13.462963,-0.12888055)">
	<text
   transform="translate(3.001,278.8347)"
   id="text28009"><tspan
     x="0"
     y="0"
     class="st2 st3 st4"
     id="tspan28005">W : 260.505 mm</tspan><tspan
     x="0"
     y="18"
     class="st2 st3 st4"
     id="tspan28007">H : 107.173 mm</tspan></text>
</g>
<path
   id="path29404"
   style="display:inline;fill:#000000;fill-opacity:0;stroke:#000000;stroke-width:100000;stroke-linecap:round;stroke-linejoin:round;stroke-opacity:1"
   transform="matrix(-3.7795274e-6,0,0,3.7795274e-6,1039.083,-189.14595)"
   d="m 94918739,150435150 c -308259,-82530 -558616,-307230 -673868,-604810 m 100179619,606380 c 308260,-82540 558610,-307240 673860,-604820 m 2259650,-4924900 c 149130,-385050 519590,-638840 932500,-638840 M 109860550,61748539 91904428,58566954 m -851707,85699646 -13926496,3840 m 155422705,-3143250 -1713730,-3459190 M 110603230,62334656 c -133640,-307531 -412510,-527615 -742680,-586117 m -32734325,82521901 c -320191,-87320 -570548,-312020 -685800,-609600 m 34992635,-79416533 -829830,-1909651 m 150897220,-1288681 c -252820,-1433746 -1498550,-2479021 -2954420,-2479021 m -227749086,-124 c -1455319,-3 -2700742,1044501 -2954169,2477584 m 205532425,80687586 c -460660,-82530 -711020,-307240 -826270,-604810 M 170314880,56997764 130935240,50110192 m -74967215,91620248 -39018874,-2264920 m 77295720,10364820 -2259646,-4924900 m 35052265,-78444647 c -96000,544606 -615800,907896 -1160230,810893 m -5818770,89894514 c 39580,1560 49226240,1560 49226240,1560 M 74967225,140612840 58508025,137666440 m 154394775,5995960 1473200,-3048000 m -158407975,1116040 c 460659,-82540 711016,-307240 826268,-604820 m 63264197,16040580 -25139751,-6731050 m -38124446,-9309530 1713732,-3459180 m 216319975,-1674840 -13327550,-74945625 m -135623190,6225711 -13702460,-2441429 m 17601960,-13908856 -2739270,15539392 m 106337710,75271207 39018870,-2264920 m 0,0 c 1631920,-287490 2721690,-1843610 2433930,-3475480 m -105543270,21176160 25139760,-6731040 m 673860,-604820 2259650,-4924900 M 91904428,58566954 l -61107484,-124 m 81377856,6263427 c -329780,-58758 -608240,-278730 -741740,-585950 m 102942940,76370093 16459200,-2946400 m -18618200,6604000 c 320190,-87320 570550,-312020 685800,-609600 M 14515225,135990040 27842775,61044414 m 170447725,83223746 13926500,3840 M 16949151,139465520 c -1631918,-287490 -2721688,-1843610 -2433926,-3475480 m 61925200,7670800 -1473200,-3048000 m 55968015,-90502648 c -543910,-95911 -1062590,267287 -1158480,811209 m -37791535,93984039 c -149129,-385050 -519586,-638840 -932504,-638840 M 258546030,58566954 h -78352660 m -9878490,-1569190 -1020950,5811185 c -144590,814654 402040,1594042 1216690,1738634 l 6891060,1216692 c 814650,144592 1594040,-402038 1738630,-1216692 l 1053060,-5980629 M 37846357,133277870 c 0,-606580 -493729,-1100310 -1100312,-1100310 -606582,0 -1100312,493730 -1100312,1100310 0,606580 493730,1100310 1100312,1100310 606583,0 1100312,-493730 1100312,-1100310 z M 48002160,77624369 c 0,-606582 -493730,-1100312 -1100312,-1100312 -606582,0 -1100312,493730 -1100312,1100312 0,606582 493730,1100312 1100312,1100312 606582,0 1100312,-493730 1100312,-1100312 z m 35400424,18507813 c 0,-606582 -493730,-1100312 -1100312,-1100312 -606582,0 -1100312,493730 -1100312,1100312 0,606582 493730,1100312 1100312,1100312 610109,0 1100312,-493730 1100312,-1100312 z m 16434148,30417278 c 0,-606580 -493730,-1100310 -1100312,-1100310 -606582,0 -1100312,493730 -1100312,1100310 0,606580 493730,1100310 1100312,1100310 610109,0 1100312,-490200 1100312,-1100310 z m 23773088,-39018756 c 0,-606582 -493730,-1100312 -1100310,-1100312 -606580,0 -1100310,493730 -1100310,1100312 0,606582 493730,1100312 1100310,1100312 606580,0 1100310,-493730 1100310,-1100312 z m 22094410,42002296 c 0,-606580 -493730,-1100310 -1100310,-1100310 -606590,0 -1100320,493730 -1100320,1100310 0,606580 493730,1100310 1100320,1100310 606580,0 1100310,-490200 1100310,-1100310 z m 22112040,-42002296 c 0,-606582 -493730,-1100312 -1100310,-1100312 -606590,0 -1100320,493730 -1100320,1100312 0,606582 493730,1100312 1100320,1100312 606580,0 1100310,-493730 1100310,-1100312 z m 23769560,39018756 c 0,-606580 -493730,-1100310 -1100310,-1100310 -606580,0 -1100310,493730 -1100310,1100310 0,606580 493730,1100310 1100310,1100310 606580,0 1100310,-493730 1100310,-1100310 z m 16423570,-30420805 c 0,-606582 -493730,-1100312 -1100310,-1100312 -606590,0 -1100320,493730 -1100320,1100312 0,606582 493730,1100312 1100320,1100312 610100,0 1100310,-490203 1100310,-1100312 z m 35403950,-18504286 c 0,-606582 -493730,-1100312 -1100310,-1100312 -606590,0 -1100320,493730 -1100320,1100312 0,606582 493730,1100312 1100320,1100312 610110,-3527 1100310,-493730 1100310,-1100312 z m 10159020,55653501 c 0,-606580 -493730,-1100310 -1100320,-1100310 -606580,0 -1100310,493730 -1100310,1100310 0,606580 493730,1100310 1100310,1100310 606590,0 1100320,-493730 1100320,-1100310 z"
   sodipodi:nodetypes="ccccccccccccccccccccccccccccccccccccccccccccccccccccccccccccccccccccccccccccccccccccccsssssssssssssssssssssssssssssssssssssssssssssssscssssss" /><g
   aria-label="b"
   transform="rotate(-3.1906374,10.918301,841.7079)"
   id="text30326"
   style="font-size:13.3333px;line-height:1.25;fill:#ff0000" /><g
   aria-label="DASH"
   id="text30331"
   style="font-size:21.3333px;line-height:1.25"
   transform="translate(4)"><path
     d="m 862.61114,60.787748 h 3.67708 q 2.35417,0 2.94791,0.614583 0.22917,0.291666 0.35417,0.729165 0.16667,0.708333 0.16667,1.604164 v 9.052069 q 0,1.999997 -0.69792,2.48958 -0.73958,0.458332 -2.71874,0.458332 h -3.91667 q -0.0312,-0.729165 -0.0312,-2.187496 V 72.75648 q 0,-0.03125 0.0312,-0.03125 h 0.0937 q 0,-0.989582 -0.0312,-7.020823 h 0.14584 l 0.0312,-0.01042 q -0.0104,-1.708331 -0.0521,-4.906243 z m 3.05208,2.61458 v 9.760401 l 0.1875,0.02083 h 0.23959 q 0.36458,0 0.36458,-0.677082 v -2.760412 l 0.0208,-0.104167 0.0729,0.01042 v -0.885416 q -0.0312,-4.562492 -0.10417,-4.968742 0,-0.270833 -0.38541,-0.395832 z"
     style="font-family:'Godzilla MovieFont';-inkscape-font-specification:'Godzilla MovieFont';fill:#ffffff"
     id="path30333" /><path
     d="m 873.99654,60.798165 h 0.9375 q 0.0312,0 0.0312,0.03125 v 0.114583 q 0.17709,0.02083 0.26042,0.02083 h 0.58333 q 0.0833,0 0.26042,-0.02083 l 1.97916,14.760394 h -3.18749 l -0.25,-2.885413 h -1.01042 l -0.28125,2.916662 q -2.81249,-0.01042 -3.09374,-0.03125 1.93749,-14.80206 1.95833,-14.874977 h 0.0208 q 1.0625,-0.03125 1.79166,-0.03125 z m 0.0937,4.947909 v 0.02083 l -0.33333,4.489576 h 0.64583 l -0.28125,-4.489576 z"
     style="font-family:'Godzilla MovieFont';-inkscape-font-specification:'Godzilla MovieFont';fill:#ffffff"
     id="path30335" /><path
     d="m 881.95486,60.725249 h 0.36459 q 2.45833,0 2.97916,0.729165 0.39583,0.510416 0.39583,1.364581 v 3.187495 h -3.10416 v -1.979163 q 0,-0.624999 -0.11458,-0.749999 -0.125,-0.125 -0.3125,-0.125 h -0.0937 q -0.26042,0 -0.35417,0.25 -0.0521,0.208333 -0.0521,0.677082 v 1.020832 q 0,0.906248 0.34375,1.052081 0.27083,0.197917 1.71874,0.947915 0.73959,0.375 1.15625,0.708333 0.8125,0.656249 0.8125,2.072913 v 1.468748 q 0,0.03125 -0.0312,0.03125 h -0.10416 q -0.0208,0.02083 -0.0208,0.07292 0,2.791662 -0.125,3.135412 -0.0833,0.364583 -0.53125,0.843749 -0.3125,0.364582 -2.43749,0.364582 h -0.48959 q -2.37499,0 -2.94791,-0.645832 -0.51041,-0.656249 -0.51041,-2.281246 v -1.552081 h 0.0312 q 0.10416,0.03125 0.125,0.03125 h 0.0104 V 71.05857 q 0,-0.5 -0.0104,-1.333332 2.23958,-0.02083 3.01041,-0.02083 v 2.739579 q 0,0.760415 0.20833,0.854165 0.10417,0.0625 0.22917,0.0625 h 0.0521 q 0.39583,0 0.45833,-0.427082 v -2.42708 q 0,-0.708332 -0.26041,-0.906248 -0.28125,-0.197917 -2.09375,-1.177082 -0.47917,-0.239583 -0.94792,-0.614582 -0.81249,-0.739582 -0.81249,-2.156247 v -1.98958 q 0,-2.062497 0.75,-2.520829 0.77083,-0.416666 2.70832,-0.416666 z"
     style="font-family:'Godzilla MovieFont';-inkscape-font-specification:'Godzilla MovieFont';fill:#ffffff"
     id="path30337" /><path
     d="m 886.17361,60.798165 h 3.01041 q 0.0417,0 0.0417,0.04167 0,0.656249 0.0104,2.499996 0.1875,0.125 0.1875,0.135416 0,0.08333 0.0104,0.28125 h -0.0104 l 0.0104,0.03125 q 0,0.02083 -0.0104,0.02083 l 0.0104,0.08333 v 2.39583 l 0.0833,0.02083 h 0.65625 q 0.0312,0 0.0312,-0.03125 0.0208,-3.760411 0.0208,-5.468741 l 0.0312,-0.01042 h 3.125 l 0.0521,0.03125 h 0.0937 v 1.020832 q -0.0312,0.114583 -0.0312,0.125 0,4.552076 -0.0104,13.447895 h -0.0208 l 0.0208,0.03125 v 0.25 q 0,0.03125 -0.0312,0.03125 h -3.19792 l -0.0312,-0.02083 0.0208,-0.09375 q -0.0417,-6.31249 -0.0417,-6.864572 h -0.77083 q 0,0.02083 0.0208,0.05208 -0.0208,2.979162 -0.0208,4.51041 v 1.67708 q 0,0.03125 -0.0104,0.0625 l 0.0104,0.03125 q 0,0.02083 -0.0104,0.02083 l 0.0104,0.08333 q -0.0104,0.447916 -0.0104,0.541665 h -1.15625 q -0.0208,0 -0.21875,-0.0625 h -0.40625 q -0.35416,0 -1.51041,0.03125 l -0.0208,-0.03125 v -0.03125 q 0.0312,-1.468748 0.0312,-1.635414 v -0.854166 q 0,-0.05208 0.0208,-0.05208 l -0.0208,-0.08333 v -0.864582 q 0,-0.624999 0.0208,-1.645831 h -0.0208 l 0.0208,-0.04167 v -0.0104 q 0,-0.02083 -0.0208,-0.02083 l 0.0208,-0.03125 V 70.00649 q 0,-3.218745 0.0104,-9.208319 z"
     style="font-family:'Godzilla MovieFont';-inkscape-font-specification:'Godzilla MovieFont';fill:#ffffff"
     id="path30339" /></g></svg>
